<?xml version="1.0" encoding="iso-8859-1"?>
<!-- Uploaded to: SVG Repo, www.svgrepo.com, Generator: SVG Repo Mixer Tools -->
<svg height="800px" width="800px" version="1.1" id="Layer_1" xmlns="http://www.w3.org/2000/svg" xmlns:xlink="http://www.w3.org/1999/xlink" 
	 viewBox="0 0 512 512" xml:space="preserve">
<path style="fill:#EFF2FA;" d="M485.517,52.966H26.483C11.857,52.966,0,64.822,0,79.448v353.103
	c0,14.626,11.857,26.483,26.483,26.483h459.034c14.626,0,26.483-11.857,26.483-26.483V79.448
	C512,64.822,500.143,52.966,485.517,52.966z"/>
<g>
	<circle style="fill:#FF6464;" cx="35.31" cy="88.276" r="8.828"/>
	<circle style="fill:#FF6464;" cx="61.793" cy="88.276" r="8.828"/>
	<circle style="fill:#FF6464;" cx="88.276" cy="88.276" r="8.828"/>
	<path style="fill:#FF6464;" d="M476.69,97.103H123.586c-4.875,0-8.828-3.953-8.828-8.828l0,0c0-4.875,3.953-8.828,8.828-8.828
		H476.69c4.875,0,8.828,3.953,8.828,8.828l0,0C485.517,93.151,481.565,97.103,476.69,97.103z"/>
	<path style="fill:#FF6464;" d="M485.517,441.379H26.483c-4.875,0-8.828-3.953-8.828-8.828V132.414c0-4.875,3.953-8.828,8.828-8.828
		h459.034c4.875,0,8.828,3.953,8.828,8.828v300.138C494.345,437.427,490.392,441.379,485.517,441.379z"/>
</g>
<g>
	<path style="fill:#FFFFFF;" d="M167.724,308.966h-8.828V220.69c0-4.875-3.953-8.828-8.828-8.828c-4.875,0-8.828,3.953-8.828,8.828
		v88.276H98.854l15.762-86.697c0.872-4.797-2.31-9.391-7.106-10.264c-4.794-0.875-9.393,2.31-10.264,7.106l-17.654,97.103
		c-0.468,2.575,0.231,5.226,1.908,7.235c1.677,2.009,4.16,3.171,6.777,3.171h52.966v17.655c0,4.875,3.953,8.828,8.828,8.828
		c4.875,0,8.828-3.953,8.828-8.828v-17.655h8.828c4.875,0,8.828-3.953,8.828-8.828S172.598,308.966,167.724,308.966z"/>
	<path style="fill:#FFFFFF;" d="M423.724,308.966h-8.828V220.69c0-4.875-3.953-8.828-8.828-8.828s-8.828,3.953-8.828,8.828v88.276
		h-42.388l15.763-86.697c0.872-4.797-2.31-9.393-7.106-10.264c-4.801-0.875-9.393,2.31-10.264,7.106l-17.655,97.103
		c-0.468,2.575,0.231,5.226,1.908,7.235c1.677,2.009,4.16,3.171,6.777,3.171h52.966v17.655c0,4.875,3.953,8.828,8.828,8.828
		s8.828-3.953,8.828-8.828v-17.655h8.828c4.875,0,8.828-3.953,8.828-8.828S428.598,308.966,423.724,308.966z"/>
	<path style="fill:#FFFFFF;" d="M308.964,353.103c-1.35,0-2.701-0.309-3.948-0.931l-13.707-6.854l-13.707,6.854
		c-2.487,1.242-5.409,1.242-7.896,0l-13.707-6.854l-13.707,6.854c-2.487,1.242-5.409,1.242-7.896,0l-13.707-6.854l-13.707,6.854
		c-2.739,1.368-5.986,1.223-8.589-0.386c-2.602-1.609-4.186-4.449-4.186-7.509v-70.621c0-34.072,27.72-61.793,61.793-61.793
		s61.793,27.721,61.793,61.793v70.621c0,3.06-1.585,5.901-4.186,7.509C312.188,352.661,310.578,353.103,308.964,353.103z
		 M255.999,326.621c1.353,0,2.705,0.31,3.948,0.931l13.707,6.854l13.707-6.854c2.487-1.242,5.409-1.242,7.896,0l4.879,2.44v-56.337
		c0-24.338-19.799-44.138-44.137-44.138c-24.339,0-44.139,19.8-44.139,44.138v56.338l4.879-2.44c2.487-1.242,5.409-1.242,7.896,0
		l13.707,6.854l13.707-6.854C253.294,326.931,254.647,326.621,255.999,326.621z"/>
	<path style="fill:#FFFFFF;" d="M238.344,282.483c-4.875,0-8.828-3.953-8.828-8.828v-8.828c0-4.875,3.953-8.828,8.828-8.828
		s8.828,3.953,8.828,8.828v8.828C247.171,278.53,243.219,282.483,238.344,282.483z"/>
	<path style="fill:#FFFFFF;" d="M273.654,282.483c-4.875,0-8.828-3.953-8.828-8.828v-8.828c0-4.875,3.953-8.828,8.828-8.828
		s8.828,3.953,8.828,8.828v8.828C282.482,278.53,278.529,282.483,273.654,282.483z"/>
</g>
</svg>